<svg xmlns="http://www.w3.org/2000/svg" width="800" height="600" viewBox="0 0 800 600">
  <defs>
    <linearGradient id="bg" x1="0" y1="0" x2="1" y2="1">
      <stop offset="0%" stop-color="#7c3aed"/>
      <stop offset="100%" stop-color="#a78bfa"/>
    </linearGradient>
  </defs>
  <rect width="800" height="600" rx="24" fill="url(#bg)"/>
  <!-- Decorative circles -->
  <circle cx="650" cy="100" r="120" fill="white" opacity="0.07"/>
  <circle cx="700" cy="450" r="80" fill="white" opacity="0.05"/>
  <circle cx="100" cy="500" r="60" fill="white" opacity="0.05"/>
  <!-- Icon area -->
  <g transform="translate(400,240)"><g transform="translate(-125,-30)" style="color:white"><circle cx="12" cy="12" r="10" stroke="currentColor" stroke-width="2" fill="none"/><path d="M2 12h20M12 2a15.3 15.3 0 014 10 15.3 15.3 0 01-4 10 15.3 15.3 0 01-4-10A15.3 15.3 0 0112 2z" stroke="currentColor" stroke-width="2" fill="none"/></g>
<g transform="translate(-75,-30)" style="color:white"><circle cx="18" cy="5" r="3" stroke="currentColor" stroke-width="2" fill="none"/><circle cx="6" cy="12" r="3" stroke="currentColor" stroke-width="2" fill="none"/><circle cx="18" cy="19" r="3" stroke="currentColor" stroke-width="2" fill="none"/><line x1="8.6" y1="13.5" x2="15.4" y2="17.5" stroke="currentColor" stroke-width="2"/><line x1="15.4" y1="6.5" x2="8.6" y2="10.5" stroke="currentColor" stroke-width="2"/></g>
<g transform="translate(-25,-30)" style="color:white"><path d="M10 13a5 5 0 007.5.5l3-3a5 5 0 00-7-7l-1.8 1.7" stroke="currentColor" stroke-width="2" fill="none" stroke-linecap="round"/><path d="M14 11a5 5 0 00-7.5-.5l-3 3a5 5 0 007 7l1.8-1.7" stroke="currentColor" stroke-width="2" fill="none" stroke-linecap="round"/></g>
<g transform="translate(25,-30)" style="color:white"><path d="M21 11.5a8.4 8.4 0 01-.9 3.8 8.5 8.5 0 01-7.6 4.7 8.4 8.4 0 01-3.8-.9L3 21l1.9-5.7a8.4 8.4 0 01-.9-3.8A8.5 8.5 0 018.7 3.9a8.4 8.4 0 013.8-.9h.5a8.5 8.5 0 018 8 v.5z" stroke="currentColor" stroke-width="2" fill="none"/></g>
<g transform="translate(75,-30)" style="color:white"><path d="M14 9V5a3 3 0 00-3-3l-4 9v11h11.3a2 2 0 002-1.7l1.4-9a2 2 0 00-2-2.3H14zM7 22H4a2 2 0 01-2-2v-7a2 2 0 012-2h3" stroke="currentColor" stroke-width="2" fill="none" stroke-linecap="round"/></g>
<g transform="translate(125,-30)" style="color:white"><rect x="2" y="4" width="20" height="16" rx="2" stroke="currentColor" stroke-width="2" fill="none"/><polyline points="22,6 12,13 2,6" stroke="currentColor" stroke-width="2" fill="none" stroke-linecap="round"/></g></g>
  <!-- Title -->
  <text x="400" y="430" text-anchor="middle" font-family="system-ui,sans-serif" font-size="32" font-weight="700" fill="white">Social Media Icons</text>
  <text x="400" y="465" text-anchor="middle" font-family="system-ui,sans-serif" font-size="16" fill="white" opacity="0.8">12 иконок / SVG / Соцсети</text>
  <!-- Badge -->
  <rect x="580" y="20" width="200" height="36" rx="18" fill="#f59e0b"/>
       <text x="680" y="44" text-anchor="middle" font-size="14" font-weight="700" fill="white">149 ₽</text>
  <!-- FORMA watermark -->
  <text x="400" y="560" text-anchor="middle" font-family="system-ui,sans-serif" font-size="12" fill="white" opacity="0.4">FORMA Platform</text>
</svg>