<svg xmlns="http://www.w3.org/2000/svg" width="288" height="96" viewBox="0 0 288 96">
  <rect width="288" height="96" fill="#f8fafc" rx="8"/>
  <g transform="translate(12,12)" style="color:#334155"><circle cx="12" cy="12" r="5" stroke="currentColor" stroke-width="2" fill="none"/><line x1="12" y1="1" x2="12" y2="3" stroke="currentColor" stroke-width="2" stroke-linecap="round"/><line x1="12" y1="21" x2="12" y2="23" stroke="currentColor" stroke-width="2" stroke-linecap="round"/><line x1="4.2" y1="4.2" x2="5.6" y2="5.6" stroke="currentColor" stroke-width="2" stroke-linecap="round"/><line x1="18.4" y1="18.4" x2="19.8" y2="19.8" stroke="currentColor" stroke-width="2" stroke-linecap="round"/><line x1="1" y1="12" x2="3" y2="12" stroke="currentColor" stroke-width="2" stroke-linecap="round"/><line x1="21" y1="12" x2="23" y2="12" stroke="currentColor" stroke-width="2" stroke-linecap="round"/></g>
  <g transform="translate(60,12)" style="color:#334155"><path d="M18 10h-1.3A8 8 0 109 20h9a5 5 0 000-10z" stroke="currentColor" stroke-width="2" fill="none" stroke-linejoin="round"/></g>
  <g transform="translate(108,12)" style="color:#334155"><path d="M12 2.7S5 9.7 5 14a7 7 0 0014 0c0-4.3-7-11.3-7-11.3z" stroke="currentColor" stroke-width="2" fill="none" stroke-linecap="round" stroke-linejoin="round"/></g>
  <g transform="translate(156,12)" style="color:#334155"><path d="M9.6 4.6A2 2 0 0111 4a2 2 0 010 4H2M12.6 19.4A2 2 0 0014 20a2 2 0 000-4H2M17.7 7.3A2.5 2.5 0 0119.5 7a2.5 2.5 0 010 5H2" stroke="currentColor" stroke-width="2" fill="none" stroke-linecap="round"/></g>
  <g transform="translate(204,12)" style="color:#334155"><path d="M14 14.8V6a2 2 0 00-4 0v8.8a4 4 0 104 0zM12 18a1 1 0 100-2 1 1 0 000 2z" stroke="currentColor" stroke-width="2" fill="none"/></g>
  <g transform="translate(252,12)" style="color:#334155"><line x1="12" y1="2" x2="12" y2="22" stroke="currentColor" stroke-width="2" stroke-linecap="round"/><line x1="2" y1="12" x2="22" y2="12" stroke="currentColor" stroke-width="2" stroke-linecap="round"/><line x1="4.9" y1="4.9" x2="19.1" y2="19.1" stroke="currentColor" stroke-width="2" stroke-linecap="round"/><line x1="19.1" y1="4.9" x2="4.9" y2="19.1" stroke="currentColor" stroke-width="2" stroke-linecap="round"/></g>
  <g transform="translate(12,60)" style="color:#334155"><path d="M1 12s4-8 11-8 11 8 11 8-4 8-11 8-11-8-11-8z" stroke="currentColor" stroke-width="2" fill="none"/><circle cx="12" cy="12" r="3" stroke="currentColor" stroke-width="2" fill="none"/></g>
  <g transform="translate(60,60)" style="color:#334155"><polygon points="12,2 15.1,8.3 22,9.2 17,14.1 18.2,21 12,17.8 5.8,21 7,14.1 2,9.2 8.9,8.3" stroke="currentColor" stroke-width="2" fill="none" stroke-linejoin="round"/></g>
  <g transform="translate(108,60)" style="color:#334155"><circle cx="12" cy="12" r="10" stroke="currentColor" stroke-width="2" fill="none"/><path d="M2 12h20M12 2a15.3 15.3 0 014 10 15.3 15.3 0 01-4 10 15.3 15.3 0 01-4-10A15.3 15.3 0 0112 2z" stroke="currentColor" stroke-width="2" fill="none"/></g>
  <g transform="translate(156,60)" style="color:#334155"><circle cx="12" cy="12" r="10" stroke="currentColor" stroke-width="2" fill="none"/><polyline points="12,6 12,12 16,14" stroke="currentColor" stroke-width="2" fill="none" stroke-linecap="round"/></g>
  <g transform="translate(204,60)" style="color:#334155"><path d="M18 8A6 6 0 006 8c0 7-3 9-3 9h18s-3-2-3-9M13.7 21a2 2 0 01-3.4 0" stroke="currentColor" stroke-width="2" fill="none" stroke-linecap="round"/></g>
  <g transform="translate(252,60)" style="color:#334155"><path d="M20.8 4.6a5.5 5.5 0 00-7.8 0L12 5.7l-1-1.1a5.5 5.5 0 00-7.8 7.8l1 1.1L12 21.3l7.8-7.8 1-1.1a5.5 5.5 0 000-7.8z" stroke="currentColor" stroke-width="2" fill="none" stroke-linecap="round"/></g>
</svg>