<svg xmlns="http://www.w3.org/2000/svg" width="800" height="600" viewBox="0 0 800 600">
  <defs>
    <linearGradient id="bg" x1="0" y1="0" x2="1" y2="1">
      <stop offset="0%" stop-color="#0c4a6e"/>
      <stop offset="100%" stop-color="#0284c7"/>
    </linearGradient>
  </defs>
  <rect width="800" height="600" rx="24" fill="url(#bg)"/>
  <!-- Decorative circles -->
  <circle cx="650" cy="100" r="120" fill="white" opacity="0.07"/>
  <circle cx="700" cy="450" r="80" fill="white" opacity="0.05"/>
  <circle cx="100" cy="500" r="60" fill="white" opacity="0.05"/>
  <!-- Icon area -->
  <g transform="translate(400,240)"><g transform="translate(-125,-30)" style="color:white"><circle cx="12" cy="12" r="5" stroke="currentColor" stroke-width="2" fill="none"/><line x1="12" y1="1" x2="12" y2="3" stroke="currentColor" stroke-width="2" stroke-linecap="round"/><line x1="12" y1="21" x2="12" y2="23" stroke="currentColor" stroke-width="2" stroke-linecap="round"/><line x1="4.2" y1="4.2" x2="5.6" y2="5.6" stroke="currentColor" stroke-width="2" stroke-linecap="round"/><line x1="18.4" y1="18.4" x2="19.8" y2="19.8" stroke="currentColor" stroke-width="2" stroke-linecap="round"/><line x1="1" y1="12" x2="3" y2="12" stroke="currentColor" stroke-width="2" stroke-linecap="round"/><line x1="21" y1="12" x2="23" y2="12" stroke="currentColor" stroke-width="2" stroke-linecap="round"/></g>
<g transform="translate(-75,-30)" style="color:white"><path d="M18 10h-1.3A8 8 0 109 20h9a5 5 0 000-10z" stroke="currentColor" stroke-width="2" fill="none" stroke-linejoin="round"/></g>
<g transform="translate(-25,-30)" style="color:white"><path d="M12 2.7S5 9.7 5 14a7 7 0 0014 0c0-4.3-7-11.3-7-11.3z" stroke="currentColor" stroke-width="2" fill="none" stroke-linecap="round" stroke-linejoin="round"/></g>
<g transform="translate(25,-30)" style="color:white"><path d="M9.6 4.6A2 2 0 0111 4a2 2 0 010 4H2M12.6 19.4A2 2 0 0014 20a2 2 0 000-4H2M17.7 7.3A2.5 2.5 0 0119.5 7a2.5 2.5 0 010 5H2" stroke="currentColor" stroke-width="2" fill="none" stroke-linecap="round"/></g>
<g transform="translate(75,-30)" style="color:white"><path d="M14 14.8V6a2 2 0 00-4 0v8.8a4 4 0 104 0zM12 18a1 1 0 100-2 1 1 0 000 2z" stroke="currentColor" stroke-width="2" fill="none"/></g>
<g transform="translate(125,-30)" style="color:white"><line x1="12" y1="2" x2="12" y2="22" stroke="currentColor" stroke-width="2" stroke-linecap="round"/><line x1="2" y1="12" x2="22" y2="12" stroke="currentColor" stroke-width="2" stroke-linecap="round"/><line x1="4.9" y1="4.9" x2="19.1" y2="19.1" stroke="currentColor" stroke-width="2" stroke-linecap="round"/><line x1="19.1" y1="4.9" x2="4.9" y2="19.1" stroke="currentColor" stroke-width="2" stroke-linecap="round"/></g></g>
  <!-- Title -->
  <text x="400" y="430" text-anchor="middle" font-family="system-ui,sans-serif" font-size="32" font-weight="700" fill="white">Weather Icons</text>
  <text x="400" y="465" text-anchor="middle" font-family="system-ui,sans-serif" font-size="16" fill="white" opacity="0.8">12 иконок / SVG / Погода</text>
  <!-- Badge -->
  <rect x="580" y="20" width="200" height="36" rx="18" fill="#f59e0b"/>
       <text x="680" y="44" text-anchor="middle" font-size="14" font-weight="700" fill="white">199 ₽</text>
  <!-- FORMA watermark -->
  <text x="400" y="560" text-anchor="middle" font-family="system-ui,sans-serif" font-size="12" fill="white" opacity="0.4">FORMA Platform</text>
</svg>