<svg xmlns="http://www.w3.org/2000/svg" width="288" height="96" viewBox="0 0 288 96">
  <rect width="288" height="96" fill="#f8fafc" rx="8"/>
  <g transform="translate(12,12)" style="color:#334155"><rect x="2" y="7" width="20" height="14" rx="2" stroke="currentColor" stroke-width="2" fill="none"/><path d="M16 7V5a2 2 0 00-2-2h-4a2 2 0 00-2 2v2" stroke="currentColor" stroke-width="2" fill="none" stroke-linecap="round"/></g>
  <g transform="translate(60,12)" style="color:#334155"><line x1="18" y1="20" x2="18" y2="10" stroke="currentColor" stroke-width="2" stroke-linecap="round"/><line x1="12" y1="20" x2="12" y2="4" stroke="currentColor" stroke-width="2" stroke-linecap="round"/><line x1="6" y1="20" x2="6" y2="14" stroke="currentColor" stroke-width="2" stroke-linecap="round"/></g>
  <g transform="translate(108,12)" style="color:#334155"><line x1="12" y1="1" x2="12" y2="23" stroke="currentColor" stroke-width="2" stroke-linecap="round"/><path d="M17 5H9.5a3.5 3.5 0 000 7h5a3.5 3.5 0 010 7H6" stroke="currentColor" stroke-width="2" fill="none" stroke-linecap="round"/></g>
  <g transform="translate(156,12)" style="color:#334155"><rect x="3" y="4" width="18" height="18" rx="2" stroke="currentColor" stroke-width="2" fill="none"/><line x1="16" y1="2" x2="16" y2="6" stroke="currentColor" stroke-width="2" stroke-linecap="round"/><line x1="8" y1="2" x2="8" y2="6" stroke="currentColor" stroke-width="2" stroke-linecap="round"/><line x1="3" y1="10" x2="21" y2="10" stroke="currentColor" stroke-width="2"/></g>
  <g transform="translate(204,12)" style="color:#334155"><circle cx="12" cy="12" r="10" stroke="currentColor" stroke-width="2" fill="none"/><polyline points="12,6 12,12 16,14" stroke="currentColor" stroke-width="2" fill="none" stroke-linecap="round"/></g>
  <g transform="translate(252,12)" style="color:#334155"><circle cx="12" cy="12" r="3" stroke="currentColor" stroke-width="2" fill="none"/><path d="M19.4 15a1.7 1.7 0 00.3 1.9l.1.1a2 2 0 11-2.8 2.8l-.1-.1a1.7 1.7 0 00-2.8 1.2V21a2 2 0 11-4 0v-.1a1.7 1.7 0 00-1.1-1.6 1.7 1.7 0 00-1.9.3l-.1.1a2 2 0 11-2.8-2.8l.1-.1A1.7 1.7 0 004.6 15" stroke="currentColor" stroke-width="2" fill="none"/></g>
  <g transform="translate(12,60)" style="color:#334155"><rect x="2" y="4" width="20" height="16" rx="2" stroke="currentColor" stroke-width="2" fill="none"/><polyline points="22,6 12,13 2,6" stroke="currentColor" stroke-width="2" fill="none" stroke-linecap="round"/></g>
  <g transform="translate(60,60)" style="color:#334155"><path d="M20 21v-2a4 4 0 00-4-4H8a4 4 0 00-4 4v2" stroke="currentColor" stroke-width="2" fill="none" stroke-linecap="round"/><circle cx="12" cy="7" r="4" stroke="currentColor" stroke-width="2" fill="none"/></g>
  <g transform="translate(108,60)" style="color:#334155"><rect x="3" y="11" width="18" height="11" rx="2" stroke="currentColor" stroke-width="2" fill="none"/><path d="M7 11V7a5 5 0 0110 0v4" stroke="currentColor" stroke-width="2" fill="none" stroke-linecap="round"/></g>
  <g transform="translate(156,60)" style="color:#334155"><circle cx="11" cy="11" r="8" stroke="currentColor" stroke-width="2" fill="none"/><path d="M21 21l-4.3-4.3" stroke="currentColor" stroke-width="2" stroke-linecap="round"/></g>
  <g transform="translate(204,60)" style="color:#334155"><path d="M21 15v4a2 2 0 01-2 2H5a2 2 0 01-2-2v-4M7 10l5 5 5-5M12 15V3" stroke="currentColor" stroke-width="2" fill="none" stroke-linecap="round" stroke-linejoin="round"/></g>
  <g transform="translate(252,60)" style="color:#334155"><path d="M11 4H4a2 2 0 00-2 2v14a2 2 0 002 2h14a2 2 0 002-2v-7" stroke="currentColor" stroke-width="2" fill="none" stroke-linecap="round"/><path d="M18.5 2.5a2.1 2.1 0 013 3L12 15l-4 1 1-4 9.5-9.5z" stroke="currentColor" stroke-width="2" fill="none" stroke-linecap="round"/></g>
</svg>