<svg xmlns="http://www.w3.org/2000/svg" width="800" height="600" viewBox="0 0 800 600">
  <defs>
    <linearGradient id="bg" x1="0" y1="0" x2="1" y2="1">
      <stop offset="0%" stop-color="#0f766e"/>
      <stop offset="100%" stop-color="#14b8a6"/>
    </linearGradient>
  </defs>
  <rect width="800" height="600" rx="24" fill="url(#bg)"/>
  <!-- Decorative circles -->
  <circle cx="650" cy="100" r="120" fill="white" opacity="0.07"/>
  <circle cx="700" cy="450" r="80" fill="white" opacity="0.05"/>
  <circle cx="100" cy="500" r="60" fill="white" opacity="0.05"/>
  <!-- Icon area -->
  <g transform="translate(400,240)"><g transform="translate(-125,-30)" style="color:white"><rect x="2" y="7" width="20" height="14" rx="2" stroke="currentColor" stroke-width="2" fill="none"/><path d="M16 7V5a2 2 0 00-2-2h-4a2 2 0 00-2 2v2" stroke="currentColor" stroke-width="2" fill="none" stroke-linecap="round"/></g>
<g transform="translate(-75,-30)" style="color:white"><line x1="18" y1="20" x2="18" y2="10" stroke="currentColor" stroke-width="2" stroke-linecap="round"/><line x1="12" y1="20" x2="12" y2="4" stroke="currentColor" stroke-width="2" stroke-linecap="round"/><line x1="6" y1="20" x2="6" y2="14" stroke="currentColor" stroke-width="2" stroke-linecap="round"/></g>
<g transform="translate(-25,-30)" style="color:white"><line x1="12" y1="1" x2="12" y2="23" stroke="currentColor" stroke-width="2" stroke-linecap="round"/><path d="M17 5H9.5a3.5 3.5 0 000 7h5a3.5 3.5 0 010 7H6" stroke="currentColor" stroke-width="2" fill="none" stroke-linecap="round"/></g>
<g transform="translate(25,-30)" style="color:white"><rect x="3" y="4" width="18" height="18" rx="2" stroke="currentColor" stroke-width="2" fill="none"/><line x1="16" y1="2" x2="16" y2="6" stroke="currentColor" stroke-width="2" stroke-linecap="round"/><line x1="8" y1="2" x2="8" y2="6" stroke="currentColor" stroke-width="2" stroke-linecap="round"/><line x1="3" y1="10" x2="21" y2="10" stroke="currentColor" stroke-width="2"/></g>
<g transform="translate(75,-30)" style="color:white"><circle cx="12" cy="12" r="10" stroke="currentColor" stroke-width="2" fill="none"/><polyline points="12,6 12,12 16,14" stroke="currentColor" stroke-width="2" fill="none" stroke-linecap="round"/></g>
<g transform="translate(125,-30)" style="color:white"><circle cx="12" cy="12" r="3" stroke="currentColor" stroke-width="2" fill="none"/><path d="M19.4 15a1.7 1.7 0 00.3 1.9l.1.1a2 2 0 11-2.8 2.8l-.1-.1a1.7 1.7 0 00-2.8 1.2V21a2 2 0 11-4 0v-.1a1.7 1.7 0 00-1.1-1.6 1.7 1.7 0 00-1.9.3l-.1.1a2 2 0 11-2.8-2.8l.1-.1A1.7 1.7 0 004.6 15" stroke="currentColor" stroke-width="2" fill="none"/></g></g>
  <!-- Title -->
  <text x="400" y="430" text-anchor="middle" font-family="system-ui,sans-serif" font-size="32" font-weight="700" fill="white">Business Icons</text>
  <text x="400" y="465" text-anchor="middle" font-family="system-ui,sans-serif" font-size="16" fill="white" opacity="0.8">12 иконок / SVG / Бизнес</text>
  <!-- Badge -->
  <rect x="580" y="20" width="200" height="36" rx="18" fill="#f59e0b"/>
       <text x="680" y="44" text-anchor="middle" font-size="14" font-weight="700" fill="white">249 ₽</text>
  <!-- FORMA watermark -->
  <text x="400" y="560" text-anchor="middle" font-family="system-ui,sans-serif" font-size="12" fill="white" opacity="0.4">FORMA Platform</text>
</svg>