<svg xmlns="http://www.w3.org/2000/svg" width="800" height="600" viewBox="0 0 800 600">
  <defs>
    <linearGradient id="bg" x1="0" y1="0" x2="1" y2="1">
      <stop offset="0%" stop-color="#7c2d12"/>
      <stop offset="100%" stop-color="#ea580c"/>
    </linearGradient>
  </defs>
  <rect width="800" height="600" rx="24" fill="url(#bg)"/>
  <!-- Decorative circles -->
  <circle cx="650" cy="100" r="120" fill="white" opacity="0.07"/>
  <circle cx="700" cy="450" r="80" fill="white" opacity="0.05"/>
  <circle cx="100" cy="500" r="60" fill="white" opacity="0.05"/>
  <!-- Icon area -->
  <g transform="translate(400,240)"><g transform="translate(-125,-30)" style="color:white"><path d="M20.6 11.4L12.4 3.2A2 2 0 0011 2.6H5a2 2 0 00-2 2v6a2 2 0 00.6 1.4l8.2 8.2a2 2 0 002.8 0l6-6a2 2 0 000-2.8z" stroke="currentColor" stroke-width="2" fill="none" stroke-linecap="round"/><circle cx="7.5" cy="7.5" r="1.5" fill="currentColor"/></g>
<g transform="translate(-75,-30)" style="color:white"><rect x="1" y="4" width="22" height="16" rx="2" stroke="currentColor" stroke-width="2" fill="none"/><line x1="1" y1="10" x2="23" y2="10" stroke="currentColor" stroke-width="2"/></g>
<g transform="translate(-25,-30)" style="color:white"><rect x="1" y="3" width="15" height="13" stroke="currentColor" stroke-width="2" fill="none"/><polyline points="16,8 20,8 23,11 23,16 16,16 16,8" stroke="currentColor" stroke-width="2" fill="none" stroke-linejoin="round"/><circle cx="5.5" cy="18.5" r="2.5" stroke="currentColor" stroke-width="2" fill="none"/><circle cx="18.5" cy="18.5" r="2.5" stroke="currentColor" stroke-width="2" fill="none"/></g>
<g transform="translate(25,-30)" style="color:white"><polyline points="20,12 20,22 4,22 4,12" stroke="currentColor" stroke-width="2" fill="none"/><rect x="2" y="7" width="20" height="5" stroke="currentColor" stroke-width="2" fill="none"/><line x1="12" y1="22" x2="12" y2="7" stroke="currentColor" stroke-width="2"/><path d="M12 7H7.5a2.5 2.5 0 010-5c2.5 0 4.5 5 4.5 5zM12 7h4.5a2.5 2.5 0 000-5C14 2 12 7 12 7z" stroke="currentColor" stroke-width="2" fill="none"/></g>
<g transform="translate(75,-30)" style="color:white"><line x1="19" y1="5" x2="5" y2="19" stroke="currentColor" stroke-width="2" stroke-linecap="round"/><circle cx="6.5" cy="6.5" r="2.5" stroke="currentColor" stroke-width="2" fill="none"/><circle cx="17.5" cy="17.5" r="2.5" stroke="currentColor" stroke-width="2" fill="none"/></g>
<g transform="translate(125,-30)" style="color:white"><path d="M16.5 9.4l-9-5.2M21 16V8a2 2 0 00-1-1.7l-7-4a2 2 0 00-2 0l-7 4A2 2 0 003 8v8a2 2 0 001 1.7l7 4a2 2 0 002 0l7-4A2 2 0 0021 16z" stroke="currentColor" stroke-width="2" fill="none" stroke-linejoin="round"/><polyline points="3.3,7 12,12 20.7,7" stroke="currentColor" stroke-width="2" fill="none" stroke-linecap="round"/><line x1="12" y1="22" x2="12" y2="12" stroke="currentColor" stroke-width="2"/></g></g>
  <!-- Title -->
  <text x="400" y="430" text-anchor="middle" font-family="system-ui,sans-serif" font-size="32" font-weight="700" fill="white">E-commerce Icons</text>
  <text x="400" y="465" text-anchor="middle" font-family="system-ui,sans-serif" font-size="16" fill="white" opacity="0.8">12 иконок / SVG / Магазин</text>
  <!-- Badge -->
  <rect x="580" y="20" width="200" height="36" rx="18" fill="#f59e0b"/>
       <text x="680" y="44" text-anchor="middle" font-size="14" font-weight="700" fill="white">179 ₽</text>
  <!-- FORMA watermark -->
  <text x="400" y="560" text-anchor="middle" font-family="system-ui,sans-serif" font-size="12" fill="white" opacity="0.4">FORMA Platform</text>
</svg>