<svg xmlns="http://www.w3.org/2000/svg" viewBox="0 0 600 400" width="600" height="400">
  <rect width="600" height="400" fill="#eef2ff" rx="12"/>
  
      <!-- Desk -->
      <rect x="150" y="220" width="300" height="10" rx="4" fill="#6366f1" opacity="0.2"/>
      <rect x="170" y="130" width="260" height="90" rx="8" fill="#6366f1"/>
      <rect x="178" y="138" width="244" height="68" rx="4" fill="#312e81"/>
      <!-- Screen content -->
      <rect x="195" y="150" width="80" height="8" rx="2" fill="#818cf8"/>
      <rect x="195" y="165" width="120" height="6" rx="2" fill="#818cf8" opacity="0.5"/>
      <rect x="195" y="178" width="90" height="6" rx="2" fill="#818cf8" opacity="0.3"/>
      <rect x="340" y="148" width="65" height="50" rx="4" fill="#a5b4fc" opacity="0.3"/>
      <!-- Keyboard -->
      <rect x="220" y="230" width="160" height="10" rx="3" fill="#c7d2fe"/>
      <!-- Coffee cup -->
      <rect x="430" y="200" width="30" height="25" rx="4" fill="#fbbf24"/>
      <rect x="460" y="207" width="12" height="10" rx="5" fill="none" stroke="#fbbf24" stroke-width="3"/>
      <path d="M435 195 Q445 185 455 195" stroke="#94a3b8" stroke-width="2" fill="none"/>
      <!-- Plant -->
      <rect x="115" y="195" width="25" height="30" rx="4" fill="#a78bfa"/>
      <circle cx="128" cy="185" r="18" fill="#34d399"/>
      <circle cx="118" cy="175" r="12" fill="#10b981"/>
      <!-- Person shape (abstract) -->
      <circle cx="300" cy="290" r="25" fill="#818cf8"/>
      <rect x="275" y="315" width="50" height="50" rx="10" fill="#6366f1"/>
      <!-- Cloud elements -->
      <ellipse cx="100" cy="80" rx="40" ry="20" fill="#c7d2fe" opacity="0.5"/>
      <ellipse cx="500" cy="60" rx="50" ry="22" fill="#c7d2fe" opacity="0.5"/>
      <ellipse cx="480" cy="120" rx="25" ry="12" fill="#c7d2fe" opacity="0.3"/>
    
</svg>