<svg xmlns="http://www.w3.org/2000/svg" viewBox="0 0 600 400" width="600" height="400">
  <rect width="600" height="400" fill="#ecfdf5" rx="12"/>
  
      <!-- Dashboard frame -->
      <rect x="100" y="60" width="400" height="280" rx="12" fill="white" stroke="#e2e8f0" stroke-width="1"/>
      <rect x="100" y="60" width="400" height="35" rx="12" fill="#f1f5f9"/>
      <rect x="100" y="83" width="400" height="12" fill="#f1f5f9"/>
      <circle cx="120" cy="78" r="5" fill="#ef4444"/><circle cx="138" cy="78" r="5" fill="#fbbf24"/><circle cx="156" cy="78" r="5" fill="#10b981"/>
      <!-- Bar chart -->
      <rect x="130" y="220" width="30" height="90" rx="4" fill="#6366f1" opacity="0.3"/>
      <rect x="170" y="180" width="30" height="130" rx="4" fill="#6366f1" opacity="0.5"/>
      <rect x="210" y="200" width="30" height="110" rx="4" fill="#6366f1" opacity="0.4"/>
      <rect x="250" y="150" width="30" height="160" rx="4" fill="#6366f1" opacity="0.7"/>
      <rect x="290" y="170" width="30" height="140" rx="4" fill="#6366f1" opacity="0.6"/>
      <rect x="330" y="130" width="30" height="180" rx="4" fill="#6366f1"/>
      <!-- Line chart overlay -->
      <polyline points="145,210 185,170 225,190 265,140 305,160 345,120" stroke="#10b981" stroke-width="3" fill="none" stroke-linecap="round" stroke-linejoin="round"/>
      <!-- Pie chart -->
      <circle cx="430" cy="170" r="35" fill="#e2e8f0"/>
      <path d="M430 135 A35 35 0 0 1 460 190 L430 170 Z" fill="#6366f1"/>
      <path d="M460 190 A35 35 0 0 1 410 198 L430 170 Z" fill="#10b981"/>
      <!-- KPI boxes -->
      <rect x="395" y="220" width="80" height="35" rx="6" fill="#f0fdf4" stroke="#d1fae5" stroke-width="1"/>
      <text x="435" y="242" text-anchor="middle" font-family="system-ui" font-size="14" font-weight="700" fill="#10b981">+24%</text>
      <rect x="395" y="265" width="80" height="35" rx="6" fill="#eef2ff" stroke="#c7d2fe" stroke-width="1"/>
      <text x="435" y="287" text-anchor="middle" font-family="system-ui" font-size="14" font-weight="700" fill="#6366f1">1.2k</text>
    
</svg>