<svg xmlns="http://www.w3.org/2000/svg" width="288" height="96" viewBox="0 0 288 96">
  <rect width="288" height="96" fill="#f8fafc" rx="8"/>
  <g transform="translate(12,12)" style="color:#334155"><line x1="5" y1="12" x2="19" y2="12" stroke="currentColor" stroke-width="2" stroke-linecap="round"/><polyline points="12,5 19,12 12,19" stroke="currentColor" stroke-width="2" fill="none" stroke-linecap="round" stroke-linejoin="round"/></g>
  <g transform="translate(60,12)" style="color:#334155"><line x1="19" y1="12" x2="5" y2="12" stroke="currentColor" stroke-width="2" stroke-linecap="round"/><polyline points="12,19 5,12 12,5" stroke="currentColor" stroke-width="2" fill="none" stroke-linecap="round" stroke-linejoin="round"/></g>
  <g transform="translate(108,12)" style="color:#334155"><polyline points="6,9 12,15 18,9" stroke="currentColor" stroke-width="2" fill="none" stroke-linecap="round" stroke-linejoin="round"/></g>
  <g transform="translate(156,12)" style="color:#334155"><polyline points="18,15 12,9 6,15" stroke="currentColor" stroke-width="2" fill="none" stroke-linecap="round" stroke-linejoin="round"/></g>
  <g transform="translate(204,12)" style="color:#334155"><line x1="3" y1="6" x2="21" y2="6" stroke="currentColor" stroke-width="2" stroke-linecap="round"/><line x1="3" y1="12" x2="21" y2="12" stroke="currentColor" stroke-width="2" stroke-linecap="round"/><line x1="3" y1="18" x2="21" y2="18" stroke="currentColor" stroke-width="2" stroke-linecap="round"/></g>
  <g transform="translate(252,12)" style="color:#334155"><line x1="18" y1="6" x2="6" y2="18" stroke="currentColor" stroke-width="2" stroke-linecap="round"/><line x1="6" y1="6" x2="18" y2="18" stroke="currentColor" stroke-width="2" stroke-linecap="round"/></g>
  <g transform="translate(12,60)" style="color:#334155"><path d="M18 13v6a2 2 0 01-2 2H5a2 2 0 01-2-2V8a2 2 0 012-2h6M15 3h6v6M10 14L21 3" stroke="currentColor" stroke-width="2" fill="none" stroke-linecap="round" stroke-linejoin="round"/></g>
  <g transform="translate(60,60)" style="color:#334155"><polyline points="23,4 23,10 17,10" stroke="currentColor" stroke-width="2" fill="none" stroke-linecap="round" stroke-linejoin="round"/><path d="M20.5 15.5A9 9 0 115.6 5.6L23 10" stroke="currentColor" stroke-width="2" fill="none" stroke-linecap="round"/></g>
  <g transform="translate(108,60)" style="color:#334155"><circle cx="11" cy="11" r="8" stroke="currentColor" stroke-width="2" fill="none"/><path d="M21 21l-4.3-4.3" stroke="currentColor" stroke-width="2" stroke-linecap="round"/></g>
  <g transform="translate(156,60)" style="color:#334155"><path d="M3 12l9-9 9 9M5 10v10a1 1 0 001 1h3a1 1 0 001-1v-4a1 1 0 011-1h2a1 1 0 011 1v4a1 1 0 001 1h3a1 1 0 001-1V10" stroke="currentColor" stroke-width="2" fill="none" stroke-linecap="round" stroke-linejoin="round"/></g>
  <g transform="translate(204,60)" style="color:#334155"><line x1="12" y1="5" x2="12" y2="19" stroke="currentColor" stroke-width="2" stroke-linecap="round"/><line x1="5" y1="12" x2="19" y2="12" stroke="currentColor" stroke-width="2" stroke-linecap="round"/></g>
  <g transform="translate(252,60)" style="color:#334155"><path d="M21 15v4a2 2 0 01-2 2H5a2 2 0 01-2-2v-4M7 10l5 5 5-5M12 15V3" stroke="currentColor" stroke-width="2" fill="none" stroke-linecap="round" stroke-linejoin="round"/></g>
</svg>